<svg xmlns="http://www.w3.org/2000/svg" width="48" height="48" viewBox="0 0 48 48">
  <g transform="translate(0,48) scale(0.01,-0.01)" fill="#000000" stroke="none">
  <path d="M3670 4386 c-41 -11 -73 -30 -192 -110 -47 -32 -147 -184 -165 -251
-10 -40 -13 -351 -13 -1625 0 -1030 4 -1590 11 -1619 10 -44 54 -122 116 -206
20 -26 63 -61 110 -90 136 -83 126 -80 263 -80 118 0 128 2 170 27 25 15 65
38 90 52 75 41 128 104 212 251 l23 40 0 1625 c0 1579 -1 1626 -19 1660 -11
19 -27 46 -36 60 -9 14 -34 51 -55 83 -22 34 -56 68 -82 85 -24 15 -66 42 -94
60 -27 18 -72 37 -101 42 -69 13 -183 11 -238 -4z m193 -297 c32 -16 106 -90
123 -121 21 -40 21 -3095 0 -3136 -20 -39 -109 -120 -141 -128 -14 -3 -47 -4
-72 -1 -40 4 -54 13 -107 66 l-61 61 0 1570 0 1569 55 57 c30 31 64 60 75 64
29 13 103 12 128 -1z"/>
  <path d="M883 3490 c-23 -5 -65 -24 -95 -43 -29 -18 -72 -46 -94 -60 -23 -14
-54 -43 -68 -64 -75 -109 -106 -163 -115 -204 -14 -61 -14 -2277 0 -2338 9
-42 49 -112 119 -208 16 -23 51 -54 77 -69 27 -15 67 -40 90 -56 54 -37 135
-52 246 -45 69 5 96 11 130 31 23 14 62 36 87 50 75 41 128 104 212 251 l23
40 0 1175 0 1175 -23 40 c-84 147 -137 210 -212 251 -25 14 -64 37 -88 51 -37
22 -58 26 -145 29 -56 2 -121 -1 -144 -6z m180 -301 c32 -16 106 -90 123 -121
12 -23 14 -195 14 -1118 0 -1213 6 -1112 -72 -1186 -55 -53 -77 -64 -128 -64
-53 0 -84 17 -145 80 l-50 51 0 1119 0 1119 45 47 c25 25 59 55 75 65 34 21
104 25 138 8z"/>
  <path d="M2283 2590 c-23 -5 -65 -24 -95 -43 -29 -18 -72 -46 -94 -60 -23 -14
-54 -43 -68 -64 -67 -97 -107 -167 -116 -206 -13 -56 -13 -1378 0 -1434 10
-41 56 -122 120 -210 16 -23 51 -54 77 -69 27 -15 67 -40 90 -56 54 -37 135
-52 246 -45 69 5 96 11 130 31 23 14 63 36 89 50 78 43 119 91 210 251 l23 40
3 688 c2 428 -1 709 -7 742 -14 77 -124 243 -187 282 -25 15 -67 43 -95 61
-27 18 -72 37 -101 42 -59 12 -165 11 -225 0z m180 -301 c32 -16 106 -90 123
-121 12 -23 14 -134 14 -668 0 -713 5 -663 -72 -736 -55 -53 -77 -64 -128 -64
-53 0 -84 17 -145 80 l-50 51 0 669 0 669 45 47 c25 25 59 55 75 65 34 21 104
25 138 8z"/>
  </g>
</svg>
