<svg xmlns="http://www.w3.org/2000/svg" width="48" height="48" viewBox="0 0 48 48">
  <g transform="translate(0,48) scale(0.01,-0.01)" fill="#000000" stroke="none">
  <path d="M692 4089 c-34 -4 -75 -14 -90 -22 -15 -8 -58 -30 -95 -50 -82 -42
-180 -137 -217 -210 -15 -28 -37 -71 -49 -94 -12 -23 -26 -70 -31 -105 -13
-85 -12 -2323 0 -2409 14 -96 90 -241 168 -318 82 -82 226 -158 325 -171 96
-13 3299 -12 3395 0 96 13 243 90 322 170 77 76 156 225 170 317 13 91 13
2314 0 2405 -14 94 -92 242 -169 319 -81 80 -226 156 -324 169 -89 12 -3316
11 -3405 -1z m3458 -216 c19 -13 48 -31 65 -40 38 -23 95 -80 118 -118 9 -17
27 -46 40 -65 l22 -35 0 -1215 c0 -1198 0 -1215 -20 -1246 -92 -144 -89 -140
-229 -229 -31 -20 -50 -20 -1725 -23 -1110 -1 -1706 1 -1730 8 -21 5 -53 21
-72 35 -19 14 -49 36 -68 48 -40 26 -126 146 -141 197 -14 48 -14 2372 0 2420
15 51 101 171 141 197 19 12 47 32 62 44 65 50 -16 48 1802 46 l1700 -2 35
-22z"/>
  <path d="M1553 3484 c-20 -10 -36 -27 -42 -48 -6 -18 -9 -182 -8 -403 l2 -373
28 -27 27 -28 389 0 389 0 26 24 c16 15 28 40 32 67 10 68 -13 199 -47 266
-16 32 -38 82 -49 111 -43 114 -215 285 -329 328 -31 11 -76 32 -99 46 -79 45
-259 66 -319 37z m268 -240 c19 -14 54 -34 79 -45 58 -26 166 -131 194 -189
12 -25 34 -66 50 -93 33 -55 30 -88 -9 -105 -17 -8 -92 -12 -214 -12 -246 0
-227 -19 -223 228 2 105 8 196 14 207 23 43 59 46 109 9z"/>
  <path d="M2775 3293 c-42 -10 -65 -44 -65 -93 0 -37 5 -51 26 -71 l26 -24 538
0 538 0 26 24 c37 35 37 107 0 142 l-26 24 -521 2 c-287 0 -531 -1 -542 -4z"/>
  <path d="M1124 3198 c-84 -82 -99 -103 -150 -205 -52 -105 -57 -121 -64 -210
-5 -54 -4 -135 1 -184 8 -77 15 -100 64 -196 46 -89 70 -123 138 -191 70 -71
98 -91 191 -138 94 -47 121 -55 195 -64 50 -5 125 -6 181 -1 86 8 106 14 205
62 98 47 121 64 208 149 95 94 97 96 97 142 0 54 -22 82 -71 92 -46 9 -89 -15
-146 -80 -38 -45 -75 -73 -149 -113 -95 -53 -99 -54 -195 -59 -58 -3 -117 0
-145 7 -58 15 -163 74 -221 125 -47 42 -136 183 -153 244 -13 48 -13 196 1
245 16 59 105 196 169 262 65 67 77 97 60 150 -14 41 -35 55 -86 55 -33 0 -46
-9 -130 -92z"/>
  <path d="M2775 2793 c-42 -10 -65 -44 -65 -93 0 -37 5 -51 26 -71 l26 -24 538
0 538 0 26 24 c37 35 37 107 0 142 l-26 24 -521 2 c-287 0 -531 -1 -542 -4z"/>
  <path d="M2775 2293 c-42 -10 -65 -44 -65 -93 0 -37 5 -51 26 -71 l26 -24 538
0 538 0 26 24 c37 35 37 107 0 142 l-26 24 -521 2 c-287 0 -531 -1 -542 -4z"/>
  <path d="M2453 1785 c-49 -21 -55 -57 -51 -307 l3 -218 28 -27 c21 -22 36 -27
68 -27 58 2 85 31 91 99 9 102 -47 94 643 97 l603 3 26 24 c21 20 26 34 26 71
0 37 -5 51 -26 71 l-26 24 -603 3 c-681 3 -632 -3 -641 84 -9 80 -13 89 -49
104 -42 17 -51 17 -92 -1z"/>
  <path d="M975 1593 c-42 -10 -65 -44 -65 -93 0 -37 5 -51 26 -71 l26 -24 582
0 c645 0 628 -2 645 63 15 54 -6 104 -49 119 -26 9 -185 12 -590 11 -305 0
-564 -2 -575 -5z"/>
  </g>
</svg>
