<svg xmlns="http://www.w3.org/2000/svg" width="24" height="24" viewBox="0 0 24 24">
  <g transform="translate(0,24) scale(0.005,-0.005)" fill="#000000" stroke="none">
  <path d="M2153 4390 c-82 -19 -123 -68 -143 -170 -7 -37 -10 -303 -9 -790 2
-672 1 -738 -15 -767 -32 -63 -46 -65 -370 -63 -363 3 -332 5 -367 -29 -23
-24 -29 -38 -29 -73 0 -56 19 -84 108 -152 39 -32 72 -61 72 -66 0 -6 34 -37
75 -71 41 -34 93 -86 116 -115 23 -30 70 -74 104 -99 35 -24 80 -68 101 -96
20 -28 68 -73 105 -100 37 -28 84 -72 104 -99 20 -27 59 -66 88 -86 29 -21 84
-70 122 -110 73 -75 111 -94 185 -94 73 0 111 19 179 90 37 37 82 77 101 90
19 12 76 64 127 114 50 50 142 138 203 196 61 58 132 127 158 153 101 104 133
135 211 206 45 41 102 89 127 108 52 40 74 78 74 128 0 48 -14 71 -53 92 -28
14 -68 16 -334 14 -335 -3 -347 -1 -379 61 -15 29 -17 108 -18 803 -1 719 -2
773 -19 810 -50 110 -97 125 -381 124 -116 -1 -225 -4 -243 -9z"/>
  <path d="M600 790 c-136 -14 -185 -64 -185 -190 0 -95 26 -142 94 -174 l46
-21 1795 -3 c1236 -2 1817 1 1864 8 127 20 171 70 171 195 0 124 -50 171 -199
186 -95 10 -3491 9 -3586 -1z"/>
  </g>
</svg>
