<svg xmlns="http://www.w3.org/2000/svg" width="24" height="24" viewBox="0 0 30 30">
  <g transform="translate(0,30) scale(0.005,-0.005)" fill="#000000" stroke="none">
  <path d="M2905 5188 c-127 -14 -171 -40 -316 -186 -106 -107 -129 -136 -147
-184 -63 -168 -41 -404 47 -515 73 -91 229 -233 285 -259 121 -55 332 -55 454
1 71 33 277 236 314 311 64 126 70 317 16 463 -18 47 -42 77 -147 182 -69 70
-144 136 -166 147 -74 37 -215 54 -340 40z"/>
  <path d="M2863 3585 c-101 -22 -132 -42 -269 -179 -112 -112 -134 -139 -152
-188 -63 -169 -41 -404 47 -515 73 -91 229 -233 285 -259 121 -55 332 -55 454
1 71 33 277 236 314 311 64 126 70 317 16 463 -18 47 -42 77 -147 183 -95 96
-140 133 -181 152 -98 45 -246 57 -367 31z"/>
  <path d="M2863 1985 c-101 -22 -132 -42 -269 -179 -112 -112 -134 -139 -152
-188 -63 -169 -41 -404 47 -515 59 -74 224 -229 267 -251 58 -29 133 -42 244
-42 111 0 186 13 245 42 57 29 267 243 297 304 64 126 70 317 16 463 -18 47
-42 77 -147 183 -95 96 -140 133 -181 152 -98 45 -246 57 -367 31z"/>
  </g>
</svg>
