<svg xmlns="http://www.w3.org/2000/svg" width="48" height="48" viewBox="0 0 50 50">
  <g transform="translate(0,50) scale(0.01,-0.01)" fill="#000000" stroke="none">
  <path d="M2275 4591 c-149 -10 -184 -15 -315 -51 -58 -16 -142 -36 -187 -44
-45 -9 -113 -31 -155 -51 -40 -19 -99 -42 -130 -50 -31 -9 -76 -29 -100 -45
-24 -17 -67 -39 -97 -50 -30 -12 -70 -35 -89 -52 -19 -16 -54 -38 -76 -48 -23
-10 -63 -36 -90 -59 -26 -22 -51 -41 -57 -41 -15 0 -259 -227 -290 -270 -16
-22 -33 -40 -39 -40 -9 0 -60 -69 -117 -158 -16 -24 -42 -64 -60 -90 -18 -26
-42 -67 -53 -92 -12 -25 -41 -83 -65 -130 -24 -47 -48 -112 -55 -145 -7 -33
-23 -88 -35 -121 -88 -234 -83 -706 9 -925 8 -20 22 -68 30 -106 8 -40 27 -90
45 -118 17 -26 42 -78 56 -115 14 -37 35 -76 46 -86 12 -11 30 -37 41 -59 33
-64 117 -175 234 -306 12 -13 50 -50 85 -81 35 -32 84 -76 109 -99 25 -22 61
-49 81 -59 20 -11 48 -33 63 -50 38 -46 37 -129 -4 -210 -16 -32 -39 -94 -51
-137 -11 -43 -35 -100 -54 -128 -18 -27 -42 -71 -53 -96 -10 -25 -43 -75 -71
-110 -124 -153 -105 -176 132 -166 154 7 199 17 352 71 55 20 107 36 116 36 9
0 40 16 69 36 28 19 73 44 98 55 26 11 63 35 82 53 19 18 52 43 73 55 20 13
43 31 50 42 21 29 148 119 169 119 10 0 34 -7 53 -14 60 -25 144 -37 325 -46
275 -14 529 5 677 50 34 11 110 28 167 39 65 13 133 34 178 55 40 20 98 42
129 50 30 9 73 28 95 42 21 15 70 39 108 55 38 15 81 39 95 52 14 14 46 35 71
47 25 13 62 38 82 56 20 18 55 42 78 54 48 24 328 302 366 363 15 23 40 57 55
75 16 18 39 52 50 75 12 23 34 58 50 78 15 20 38 62 50 95 12 32 34 77 48 99
14 22 37 85 52 140 15 55 39 138 53 185 34 109 50 291 41 475 -7 158 -22 247
-60 355 -14 41 -32 103 -40 138 -8 34 -32 95 -54 135 -21 40 -44 89 -50 109
-7 20 -26 54 -43 75 -16 21 -39 56 -50 77 -26 50 -107 162 -147 202 -17 16
-41 44 -53 60 -29 38 -264 254 -277 254 -5 0 -30 18 -56 40 -25 21 -65 48 -88
58 -24 11 -59 33 -78 50 -20 17 -60 40 -90 52 -30 11 -73 33 -97 50 -24 16
-69 36 -100 45 -31 8 -90 31 -130 50 -42 20 -110 42 -155 51 -45 8 -129 28
-187 44 -58 16 -139 33 -180 39 -106 14 -443 21 -585 12z m496 -202 c103 -10
205 -30 256 -50 16 -6 79 -21 141 -34 74 -16 132 -35 166 -54 30 -16 79 -37
111 -45 32 -8 81 -31 109 -50 28 -19 71 -42 96 -51 25 -9 56 -27 70 -40 14
-13 54 -40 90 -60 36 -20 69 -43 73 -51 4 -7 28 -27 52 -44 84 -58 336 -323
370 -390 10 -19 31 -52 47 -72 16 -21 40 -65 54 -99 14 -34 36 -76 48 -93 27
-36 40 -70 57 -146 6 -30 23 -84 36 -119 69 -184 71 -597 3 -772 -11 -30 -30
-90 -41 -134 -11 -44 -36 -106 -55 -137 -19 -31 -41 -76 -49 -99 -9 -24 -28
-59 -43 -78 -15 -19 -40 -59 -57 -88 -70 -123 -392 -436 -510 -495 -27 -14
-58 -35 -68 -46 -10 -11 -44 -31 -75 -43 -31 -13 -77 -37 -102 -55 -25 -17
-72 -39 -104 -49 -33 -9 -87 -30 -120 -47 -33 -17 -107 -40 -165 -53 -58 -13
-149 -34 -201 -48 -122 -32 -265 -47 -443 -47 -199 1 -321 14 -472 50 -191 46
-176 50 -297 -71 -152 -151 -169 -166 -213 -185 -22 -9 -60 -31 -85 -49 -25
-18 -72 -41 -105 -50 -33 -10 -83 -29 -112 -43 -44 -22 -56 -24 -77 -14 -32
14 -32 30 -5 85 12 23 36 84 54 137 18 52 42 120 53 150 25 67 46 211 37 259
-12 72 -26 91 -95 131 -37 21 -73 47 -81 56 -7 9 -30 27 -49 39 -38 24 -235
219 -311 307 -25 29 -56 73 -69 98 -12 25 -35 59 -50 76 -15 18 -36 54 -46 80
-10 27 -33 72 -51 99 -18 28 -39 79 -47 115 -9 36 -29 105 -46 154 -37 110
-50 211 -50 386 0 160 18 287 54 390 15 41 33 104 42 140 8 36 26 82 40 103
14 21 40 70 58 110 18 40 44 86 58 102 14 17 33 46 43 65 34 66 287 333 370
390 23 16 45 36 48 44 3 8 30 27 59 42 29 15 71 42 93 60 22 18 66 42 97 54
31 11 62 28 69 36 18 22 75 49 132 63 27 6 73 25 102 42 35 20 93 38 167 54
62 13 126 28 141 34 48 18 158 41 242 50 118 12 437 13 556 0z"/>
  <path d="M2292 3606 c-64 -14 -113 -31 -130 -44 -15 -12 -51 -39 -80 -59 -28
-20 -66 -57 -82 -82 -16 -25 -43 -63 -59 -83 -19 -26 -33 -60 -41 -105 -7 -38
-19 -82 -27 -100 -19 -47 -16 -87 8 -109 16 -15 40 -20 103 -22 101 -5 113 5
127 104 17 122 122 269 209 295 56 17 279 17 336 1 60 -17 128 -93 151 -168
23 -78 23 -193 -1 -263 -15 -43 -44 -82 -140 -188 -225 -248 -251 -284 -284
-392 -71 -227 -68 -210 -51 -239 21 -39 55 -52 135 -52 57 0 77 4 98 21 23 18
26 27 26 83 0 135 29 180 305 460 55 55 108 115 118 131 9 17 28 45 42 64 36
49 45 92 45 226 0 145 -8 175 -70 273 -56 90 -78 114 -144 162 -91 65 -103 70
-207 90 -134 26 -256 24 -387 -4z"/>
  <path d="M2430 1873 c-81 -13 -100 -41 -107 -153 -5 -71 -4 -76 22 -100 23
-21 38 -25 106 -29 43 -2 90 0 103 3 37 9 50 54 43 152 -7 126 -37 149 -167
127z"/>
  </g>
</svg>
