<svg xmlns="http://www.w3.org/2000/svg" width="48" height="48" viewBox="0 0 48 48">
  <g transform="translate(0,48) scale(0.01,-0.01)" fill="#000000" stroke="none">
  <path d="M2435 4796 c-5 -2 -22 -7 -37 -10 -15 -4 -43 -20 -61 -36 -19 -16
-55 -39 -81 -50 -27 -11 -66 -36 -89 -55 -23 -20 -58 -41 -79 -47 -21 -6 -55
-26 -76 -43 -20 -18 -57 -42 -82 -55 -25 -12 -63 -37 -85 -54 -22 -18 -60 -40
-85 -50 -25 -10 -58 -30 -75 -46 -16 -15 -57 -42 -91 -58 -33 -17 -67 -38 -75
-48 -8 -9 -41 -29 -74 -44 -33 -15 -73 -38 -90 -52 -16 -14 -52 -37 -80 -51
-27 -13 -59 -35 -70 -47 -11 -13 -47 -35 -81 -50 -33 -15 -76 -41 -95 -58 -19
-16 -52 -37 -74 -46 -22 -10 -53 -30 -70 -45 -16 -16 -55 -41 -85 -56 -30 -15
-66 -38 -80 -51 -14 -12 -46 -32 -72 -44 -25 -11 -66 -37 -90 -57 -24 -20 -58
-42 -76 -50 -18 -7 -49 -28 -70 -47 -20 -18 -53 -41 -72 -51 -39 -20 -111 -88
-129 -122 -27 -52 -12 -98 54 -171 17 -19 54 -60 82 -93 l53 -59 0 -574 c0
-381 -4 -584 -11 -603 -5 -15 -24 -42 -40 -59 -34 -35 -49 -80 -49 -145 0 -33
-7 -55 -25 -80 -55 -75 -64 -95 -71 -146 -9 -74 10 -166 45 -222 17 -25 39
-67 51 -93 11 -26 31 -60 44 -75 13 -15 38 -51 55 -80 60 -98 144 -96 206 6
19 32 42 65 52 72 9 8 27 39 40 69 14 30 38 76 54 102 61 94 61 253 1 328 -44
54 -52 74 -52 129 0 62 -13 98 -51 137 -16 17 -34 45 -39 63 -5 19 -10 225
-10 459 l-2 427 22 17 c12 10 27 18 33 18 5 0 37 -30 71 -67 34 -37 103 -110
153 -162 59 -59 93 -102 93 -116 0 -11 -16 -36 -35 -55 -20 -19 -54 -63 -77
-97 -36 -56 -42 -73 -51 -154 -14 -127 0 -199 57 -297 62 -107 81 -129 135
-156 50 -26 149 -123 173 -171 9 -17 23 -57 33 -90 9 -33 31 -82 49 -110 18
-27 41 -75 51 -105 9 -30 30 -71 46 -92 16 -20 40 -62 54 -94 14 -33 34 -68
45 -79 10 -11 30 -43 44 -71 14 -27 35 -59 47 -70 12 -10 40 -46 62 -79 51
-75 285 -308 335 -334 20 -11 50 -33 66 -50 16 -17 52 -38 80 -47 28 -9 85
-31 127 -50 156 -69 420 -70 577 -1 42 19 99 42 126 52 27 10 65 32 85 49 20
18 50 40 66 51 114 71 360 340 438 480 15 27 36 59 47 70 10 11 31 47 45 79
14 32 37 74 52 92 14 19 36 64 49 100 14 36 37 85 53 108 16 23 37 69 46 102
10 32 26 75 35 94 22 43 131 146 192 181 28 16 54 43 70 70 13 24 39 67 57 95
38 61 52 154 40 282 -7 75 -11 88 -52 150 -25 37 -59 80 -76 96 -17 17 -31 40
-31 52 0 15 96 118 321 345 177 178 339 348 361 377 21 28 42 52 47 52 20 0
44 68 38 110 -5 36 -15 52 -61 96 -31 30 -71 61 -88 70 -18 9 -46 29 -63 45
-16 15 -46 35 -66 43 -20 8 -55 31 -79 51 -24 20 -59 43 -79 51 -20 8 -49 28
-66 44 -16 16 -52 39 -80 51 -27 12 -66 35 -84 52 -19 16 -55 39 -80 50 -26
11 -61 33 -79 48 -18 16 -56 41 -85 55 -29 15 -66 39 -84 55 -18 15 -53 37
-78 48 -26 11 -60 32 -77 46 -17 15 -56 39 -88 55 -31 16 -62 36 -70 45 -8 9
-41 30 -74 47 -34 17 -72 41 -86 54 -14 12 -47 33 -75 45 -27 12 -65 35 -83
51 -19 16 -59 40 -89 54 -30 13 -70 37 -89 53 -18 16 -53 38 -77 49 -23 10
-59 33 -78 50 -20 17 -60 40 -91 52 -30 11 -64 30 -74 41 -32 36 -74 51 -153
55 -42 2 -80 2 -86 0z m101 -206 c15 -6 41 -22 58 -37 17 -14 56 -37 86 -50
30 -14 69 -37 87 -53 18 -16 54 -38 80 -50 26 -12 59 -32 73 -45 14 -13 50
-35 82 -49 31 -14 72 -39 91 -55 19 -17 52 -38 73 -47 21 -9 56 -31 79 -49 22
-18 65 -44 95 -58 30 -13 64 -34 75 -47 11 -12 47 -34 80 -50 33 -15 69 -37
80 -50 11 -12 44 -33 73 -46 30 -13 67 -35 84 -49 17 -15 54 -38 82 -52 28
-14 65 -38 81 -54 17 -15 48 -35 70 -44 21 -10 57 -32 80 -50 22 -19 61 -43
86 -53 25 -11 59 -32 75 -47 16 -15 54 -40 84 -55 30 -15 64 -38 75 -50 11
-12 45 -35 76 -51 73 -37 89 -70 64 -134 -9 -25 -20 -45 -24 -45 -4 0 -25 -18
-47 -41 -21 -22 -124 -127 -229 -233 -104 -106 -198 -204 -208 -219 -12 -19
-27 -27 -46 -27 -52 0 -55 14 -52 220 3 237 0 247 -95 290 -38 17 -75 37 -84
44 -8 8 -49 24 -90 35 -41 12 -109 38 -151 57 -51 23 -113 41 -186 54 -61 10
-140 27 -175 38 -142 44 -272 56 -618 56 -351 0 -463 -10 -632 -59 -46 -13
-127 -30 -182 -39 -67 -12 -119 -27 -165 -50 -36 -18 -97 -41 -136 -51 -38 -9
-90 -30 -115 -45 -25 -16 -65 -37 -90 -48 -76 -32 -75 -29 -76 -264 -2 -225
-4 -238 -55 -238 -19 0 -34 8 -46 27 -10 15 -103 113 -208 219 -104 106 -208
211 -229 233 -22 23 -43 41 -47 41 -4 0 -15 20 -24 45 -25 63 -9 98 59 132 28
14 65 38 81 54 17 15 55 39 85 52 30 14 64 35 75 47 11 12 43 33 70 47 28 14
68 40 90 58 22 18 63 42 92 54 28 13 62 34 75 48 12 14 50 37 83 52 33 16 69
38 80 51 11 12 43 32 70 45 28 12 59 32 70 45 11 12 52 37 90 55 39 18 79 42
90 55 11 12 40 31 65 42 24 10 62 34 85 52 22 18 57 39 78 47 22 7 55 28 76
45 20 18 66 45 101 61 36 17 74 40 85 53 11 12 45 33 75 47 30 13 66 35 80 47
14 13 48 35 76 49 28 14 65 37 81 51 51 43 85 52 129 36z m354 -1310 c41 -6
107 -21 145 -32 39 -11 130 -31 202 -43 102 -18 145 -30 186 -54 29 -17 81
-37 115 -45 79 -18 126 -47 147 -92 14 -29 16 -60 13 -179 -3 -124 -6 -146
-22 -164 -24 -26 -46 -26 -95 -1 -21 10 -74 24 -117 29 -44 6 -117 19 -164 30
-239 57 -324 64 -795 64 -478 0 -521 -3 -805 -63 -74 -15 -162 -32 -195 -38
-33 -5 -81 -18 -107 -28 l-48 -19 -22 23 c-21 21 -23 32 -26 167 -3 119 -1
150 14 180 19 41 78 79 139 90 22 4 76 24 120 45 60 29 106 42 184 54 57 9
141 27 187 40 72 21 119 29 304 50 69 8 567 -3 640 -14z m-75 -690 c104 -5
217 -20 320 -39 88 -17 207 -38 265 -46 198 -27 256 -55 298 -142 l27 -58 81
-5 c92 -6 116 -18 159 -80 25 -36 30 -55 33 -114 5 -101 -9 -144 -74 -220 -53
-62 -91 -86 -139 -86 -39 0 -73 -36 -90 -98 -9 -31 -28 -75 -41 -98 -13 -23
-35 -73 -48 -112 -14 -39 -38 -91 -54 -114 -16 -24 -37 -66 -46 -94 -9 -29
-32 -72 -51 -96 -19 -24 -41 -63 -49 -86 -8 -22 -37 -72 -65 -109 -28 -37 -72
-97 -98 -133 -81 -109 -192 -226 -251 -266 -32 -20 -62 -45 -69 -54 -6 -9 -31
-24 -55 -34 -24 -10 -81 -37 -127 -59 l-84 -42 -157 0 -157 0 -84 42 c-46 22
-99 47 -118 54 -19 7 -53 29 -76 49 -24 20 -58 46 -76 58 -53 33 -248 256
-287 328 -6 11 -29 42 -51 69 -22 27 -47 68 -55 92 -8 23 -30 63 -50 88 -19
26 -43 70 -52 98 -9 29 -30 71 -46 95 -16 23 -40 75 -54 114 -13 39 -35 89
-48 112 -13 23 -32 67 -41 98 -17 62 -51 98 -90 98 -48 0 -86 24 -139 86 -65
76 -79 119 -74 220 3 57 9 79 31 112 40 62 69 76 161 82 l81 5 27 58 c42 87
100 114 297 142 58 8 177 29 265 46 232 45 590 60 951 39z m-2265 -1105 c82
-43 43 -235 -48 -235 -60 0 -111 95 -96 177 11 61 83 90 144 58z"/>
  </g>
</svg>
