<svg xmlns="http://www.w3.org/2000/svg" width="24" height="24" viewBox="0 0 512 512">
  <g transform="translate(0,512) scale(0.1,-0.1)" fill="#000000" stroke="none">
  <path d="M2330 4179 c-722 -83 -1526 -589 -2182 -1374 -196 -235 -196 -255 0
-490 466 -557 1029 -993 1562 -1208 329 -134 605 -186 925 -174 553 20 1103
259 1684 731 230 187 584 553 752 776 64 86 64 154 0 240 -154 204 -507 574
-706 739 -546 453 -1069 703 -1587 760 -112 13 -339 12 -448 0z m565 -358
c443 -89 938 -370 1389 -787 181 -167 446 -449 446 -474 0 -29 -381 -424 -555
-575 -410 -355 -877 -605 -1280 -685 -155 -31 -413 -38 -570 -16 -480 70 -989
343 -1485 798 -175 161 -450 452 -450 478 0 36 421 463 611 621 383 316 759
523 1122 615 179 45 257 53 467 50 151 -3 220 -8 305 -25z"/>
  <path d="M2415 3563 c-93 -14 -203 -50 -300 -98 -208 -101 -359 -252 -460
-460 -83 -168 -100 -245 -100 -445 1 -200 18 -278 100 -445 101 -208 252 -359
460 -460 167 -82 245 -99 445 -99 193 0 274 17 429 90 219 103 382 266 485
485 73 155 90 236 90 429 0 200 -17 278 -99 445 -101 208 -252 359 -460 460
-153 75 -246 97 -420 101 -77 1 -153 0 -170 -3z m325 -354 c184 -49 340 -179
425 -354 48 -99 66 -182 66 -295 0 -113 -18 -196 -66 -295 -86 -178 -249 -310
-444 -360 -143 -37 -342 -13 -471 56 -229 122 -361 341 -361 599 0 450 413
765 851 649z"/>
  </g>
</svg>
